<?xml version="1.0" encoding="UTF-8"?>
<svg id="_Слой_1" data-name="Слой 1" xmlns="http://www.w3.org/2000/svg" viewBox="0 0 766.07 548.17">
  <path d="M51.48,384.18c1.1,.17,1.57,.3,2.03,.3,219.67,.06,439.34,.11,659.01,.15,.34,0,.67-.19,1.48-.43-1.3-1.27-2.43-2.3-3.49-3.42-5.85-6.16-11.63-12.37-17.52-18.49-13.85-14.4-27.72-28.78-41.62-43.12-17.29-17.85-34.61-35.66-51.92-53.49-.7-.72-1.37-1.45-2.05-2.18-5.55-5.96-2.86-4.99-11.44-4.99-51.7-.04-103.4,0-155.1,0-4.62,0-9.24-.14-13.86-.28-1.33-.04-2.65-.3-4.79-.55,1.25-1.18,1.9-2.02,2.75-2.56,6.76-4.26,13.52-8.5,20.36-12.63,.99-.6,2.36-.77,3.55-.77,52.33-.13,104.65-.21,156.98-.35,2.13,0,3.72,.54,5.3,2.07,20.67,20.12,41.45,40.13,62.13,60.23,23.37,22.72,46.63,45.54,70,68.26,9.31,9.05,18.79,17.93,28.19,26.89,1.34,1.28,2.63,2.6,4.6,4.57-2.61,.18-4.39,.41-6.16,.41-25.23-.01-50.45-.08-75.68-.09-107.03-.06-214.05-.13-321.08-.13-42.84,0-85.67,.26-128.51,.25-62.94-.01-125.88-.18-188.82-.24-13.74-.01-27.47,.1-41.21,.15-1.47,0-2.93,0-4.4,0-.07-.24-.15-.48-.22-.73,55.47-53.85,110.94-107.69,166.3-161.44h120.75c.48,5.31,.95,10.5,1.47,16.15-1.92,.16-3.84,.45-5.75,.46-19.98,.05-39.96,.06-59.94,.08-3.37,0-6.73,0-10.8,0-2.71,3.04-5.94,6.49-8.98,10.1-6.6,7.83-13.18,15.67-19.61,23.64-2.45,3.03-5.07,4.56-9.18,4.42-10.85-.36-21.73-.14-32.59-.34-2.97-.05-5.15,.81-7.24,2.95-15.51,15.92-31.12,31.74-46.69,47.61-11.62,11.85-23.22,23.73-34.82,35.61-.42,.43-.72,.96-1.44,1.94Z"/>
  <path d="M57.19,381.52c.87-.99,1.71-2.02,2.63-2.96,20.26-20.7,40.53-41.39,60.8-62.08,4.98-5.08,9.99-10.13,14.9-15.29,1.85-1.94,3.85-2.81,6.59-2.77,10.86,.13,21.73,.05,32.59,.06,.7,0,1.4,.09,2.94,.19-17.96,21.83-36.37,42.38-54.15,63.72,4.24,.95,512.29,1.13,518.1,.21-27.38-34.04-55.26-67.36-83.34-101.37,1.56-.26,2.33-.5,3.11-.51,8.99-.1,17.98-.12,26.97-.27,2.28-.04,3.84,.68,5.46,2.42,7.59,8.11,15.39,16.03,23.12,24.01,23.37,24.12,46.76,48.22,70.08,72.39,6.33,6.56,12.45,13.32,18.64,20,.66,.71,1.2,1.53,2.23,2.87-1.96,.09-3.37,.22-4.79,.22-15.98,.02-31.97,.02-47.95,.02-172.19,0-344.38,0-516.57,0-25.6,0-51.2-.01-76.79-.02-1.37,0-2.73,0-4.1,0-.16-.27-.32-.55-.48-.82Z"/>
  <path d="M554.47,260.65c27.58,33.45,54.71,66.36,82.21,99.71-1.34,.3-2.1,.59-2.87,.61-3.12,.09-6.24,.14-9.36,.14-49.44,.03-98.89,.06-148.33,.07-2.34,0-4.69-.2-7.38-.32-7.24-33.33-14.42-66.39-21.7-99.92,36.28-.76,71.95-.56,107.43-.29Z"/>
  <path d="M565.99,0c26.76-.14,46.34,15.02,53.05,36.59,5.85,18.8-2.71,40.34-17.42,50.3-20.87,14.13-41.54,28.57-62.2,43.01-19.44,13.58-38.78,27.29-58.13,41-4.27,3.03-8.29,6.43-12.6,9.39-19.41,13.32-47.76,1.71-53.25-21.88-1.91-8.22-1.61-16.37,2.04-24.17,2.31-4.94,5.96-8.88,9.78-12.68,11.85-11.8,23.8-23.51,35.53-35.44,22.31-22.7,44.49-45.53,66.73-68.3C540.67,6.39,554.18,.3,565.99,0Zm-60.38,92.6c.93,1.25,1.47,2.25,2.26,2.99,1.53,1.44,3,3.14,4.83,4.01,4.59,2.17,9.51,2.81,14.59,2.1,4.91-.69,8.78-3.41,12.57-6.28,7.96-6.02,15.88-12.1,23.85-18.11,6.77-5.11,13.66-10.06,20.37-15.25,4.61-3.57,8.19-8.06,10.25-13.58,2.05-5.51,2.19-11-.87-16.24-2.91-4.98-6.97-8.77-12.17-11.28-9.7-4.69-19.24-4.04-28.12,1.8-6.86,4.52-13.48,9.48-19.75,14.78-3.06,2.58-5.49,6.16-7.46,9.69-2.41,4.33-4.09,9.08-6,13.68-3.06,7.37-5.93,14.82-9.14,22.12-.97,2.22-2.41,4.55-4.27,6.01-10.2,8.02-20.6,15.77-30.93,23.63-2.58,1.96-5.15,3.95-7.7,5.96-1.14,.9-2.42,1.78-1.63,4.21,13.32-9.92,25.78-20.4,39.33-30.24Zm-34.17,57.98c.55-11.78-12.53-22.15-21.49-21.78-11.61,.48-21.07,9.79-21.13,21.84-.06,11.23,10.04,21.1,21.52,21.03,11.15-.07,21.11-10.02,21.1-21.09Z"/>
  <path d="M290.38,521.59h-79.34c.75-2.82,11.6-19.13,15.01-22.57h49.17c-.91-1.58-1.48-2.74-2.2-3.8-7.32-10.87-14.68-21.72-22-32.59-2.93-4.35-5.76-8.76-8.67-13.12-1.09-1.64-2.29-3.2-3.63-5.07-1.16,1.49-2.13,2.61-2.95,3.83-15.75,23.4-31.47,46.82-47.21,70.22-4.88,7.25-9.76,14.5-14.66,21.73-1.05,1.55-2.04,3.22-3.4,4.44-1.44,1.29-3.21,2.81-4.98,3.02-3.68,.44-7.51,.48-11.17-.05-4.11-.6-6.53-5.99-4.94-10.56,.81-2.33,2.03-4.57,3.41-6.63,14.99-22.41,30.05-44.78,45.09-67.16,8.63-12.85,17.24-25.71,25.87-38.56,1.11-1.66,2.25-3.3,3.49-4.87,.77-.97,1.64-1.91,2.63-2.64,5.03-3.67,16-2.22,19.78,2.8,3.45,4.59,6.6,9.39,9.82,14.15,20.47,30.31,40.93,60.62,61.37,90.95,1.88,2.79,3.75,5.61,5.41,8.53,.85,1.49,1.49,3.2,1.76,4.89,.87,5.36-2.39,9.32-7.82,9.62-1.86,.1-3.75-.19-5.61-.07-4.19,.26-7.18-1.63-9.44-4.96-3.99-5.89-7.96-11.79-11.96-17.68-.84-1.23-1.75-2.41-2.8-3.85Z"/>
  <path d="M218.5,298.95c-3.32,4.05-6.14,7.69-9.2,11.11-.69,.77-2.2,1.07-3.35,1.12-3.86,.19-7.74,.14-11.61,.25-1.16,.03-2.51-.17-3.3,1.41,1.14,1.27,2.61,.88,3.85,.89,12.11,.09,24.22,.13,36.33,.16,10.83,.02,21.67,0,32.97,0,.21,3.2,.55,6.68,3.32,8.97,2.43,2.01,5.11,3.72,8.19,5.93-1.94,.1-3.38,.24-4.81,.24-30.84,.06-61.69,.1-92.53,.19-1.51,0-3.26-.62-4.55,1.03,1.17,1.51,2.78,.99,4.16,1,11.11,.08,22.23,.1,33.34,.11,22.35,.01,44.7-.15,67.05,.09,6.58,.07,13.16,1.21,19.74,1.86,2.45,.24,4.91,.48,7.33,.71-.05,3.63-4.92,20.72-7.42,26.36-3.98,.96-163.91,.95-169.18-.12,1.39-1.79,2.58-3.47,3.92-5.03,12.67-14.79,25.37-29.56,38.03-44.36,2.84-3.32,5.58-6.72,8.27-10.17,1.1-1.4,2.38-2.11,4.14-2.11,11.11-.03,22.23-.08,33.34-.11,.45,0,.91,.2,1.98,.45Z"/>
  <path d="M492.24,495.47c1.36-1.57,2.59-2.94,3.77-4.36,13.84-16.58,27.67-33.16,41.5-49.75,5.2-6.23,10.37-12.48,15.59-18.7,1.12-1.34,2.34-2.59,3.53-3.87,2.26-2.43,5.07-3.54,8.38-3.41,2.24,.09,4.51-.02,6.73,.23,3.77,.43,5.78,2.38,6.62,6.09,.87,3.86-.38,7.13-2.83,10.05-5.05,6.03-10.07,12.08-15.14,18.09-18.42,21.86-36.85,43.71-55.28,65.57-.48,.57-1.01,1.12-1.43,1.73-5.64,8.27-17.42,7.79-23.59-.13-10.27-13.19-21.26-25.83-32.01-38.65-12.75-15.21-25.57-30.36-38.32-45.57-1.27-1.52-2.53-3.15-3.34-4.93-2.88-6.34,.97-12.04,7.87-12.58,7.11-.56,12.23,1.87,16.83,7.45,19.52,23.7,39.39,47.12,59.14,70.64,.54,.65,1.17,1.23,1.98,2.09Z"/>
  <path d="M301.19,360.8c2.68-9.09,5.2-17.65,7.87-26.7,2.11,0,4.21,.14,6.29-.03,8.08-.65,16.15-1.44,24.23-2.07,4.72-.37,9.45-.77,14.18-.77,33.69,0,67.38,.09,101.08,.16,1.36,0,2.73,0,4.52,0,2.24,9.65,4.46,19.19,6.8,29.23-2.78,.15-5.23,.41-7.68,.4-44.3-.04-88.6-.1-132.9-.17-6.74,0-13.48-.04-20.22-.06-1.22,0-2.44,0-4.17,0Z"/>
  <path d="M443.64,194.5c-.81,9.18-3.14,17.8-7.68,25.62-6.11,10.53-15.85,16.99-26.67,22.51-.37-.9-.76-1.51-.88-2.18-1.2-6.74-6.02-10.93-12.98-10.96-2.21,0-4.42,.61-6.63,.94-.6,.09-1.19,.19-1.71,.27-1.4-2.13-2.61-4.15-3.98-6.04-5.53-7.61-13.54-10.16-22.44-10.88-2.11-.17-4.23-.35-6.31-.73-.91-.17-2-.63-2.54-1.33-3.44-4.41-6.75-8.92-10.16-13.47,4.19-5.88,5.56-12.43,6.24-19.42,1.67-.53,3.29-1.1,4.94-1.57,3.71-1.06,7.43-2.08,11.16-3.1,4.03-1.1,7.59-3.04,10.85-5.67,2.91-2.34,5.92-4.57,9.05-6.61,3.88-2.53,8.24-3.3,12.87-3.03,4.19,.24,7.39,2.1,9.84,5.33,1.35,1.78,2.57,3.69,3.67,5.64,6.24,11.06,15.57,18.29,27.45,22.43,1.86,.65,3.69,1.4,5.89,2.24Zm-36.33,13.28c4.41-.33,8.49-1.74,10.58-6.17,2.01-4.26,.97-8.31-1.96-11.82-1.26-1.52-2.74-2.9-4.31-4.11-3.77-2.89-7.48-5.74-9.25-10.44-.85-2.25-2.9-2.92-5.21-2.79-2.35,.13-4.32,1.1-5.97,2.73-5,4.92-6.45,14.17-3.33,20.48,3.96,8,10.86,11.22,19.46,12.13Z"/>
  <path d="M291.39,260.87c.99,2.64,2.01,5.37,3.17,8.46,.75-2.64,1.4-4.95,1.98-7.03,2.9-1.62,5.34-1.16,8.01,.45,1.62,5.55,1.56,11.38,.57,17.17-.63,3.69-2.86,5.13-7.57,5.57-3.17-3.96-1.78-8.98-2.63-13.53-.3,.16-.67,.27-.66,.36,.15,4.83,.24,9.66,.57,14.48,.14,2.07,1.47,3.35,3.69,3.54,.85,.07,1.67,.38,2.84,.66-.18,1.5-.35,2.92-.53,4.39-39.15,1.45-77.99,.72-117.51,.93,.87-1.22,1.24-1.82,1.69-2.36,8.47-10.16,16.97-20.3,25.39-30.5,1.57-1.9,3.29-2.65,5.78-2.65,24.34-.03,48.68-.18,73.02-.27,.61,0,1.21,.17,2.19,.33Z"/>
  <path d="M318.52,263.12c5.4,.4,10.35,.76,15.88,1.17-.36,1.39-.56,2.55-.96,3.63-2.02,5.4-3.79,10.83-3,17.08-2.53,.42-4.92,.82-6.97,1.16-.62,2.5-1.12,4.65-1.69,6.77-2.22,8.17-4.47,16.32-6.72,24.51,4.1,.78,5.62,.22,7.41-2.87,3.84-6.62,6.51-13.72,8.59-21.07,.33-1.16,.64-2.32,1.63-3.34-.29,2.01-.58,4.02-.89,6.08,3.32,1.78,6.8,1.38,10.05,2.04,1.83,.37,3.71,.57,5.57,.6,5.6,.08,9.25,3.31,12.19,7.53,2.88,4.14,2.4,9.34-1.07,13.06-4.58,4.92-10.37,7.79-16.83,9.14-18.78,3.92-37.64,4.28-56.48,.44-5.91-1.21-11.31-3.5-15.9-7.78-3.71-3.46-4.13-10.61,.52-14.19,3.55-2.73,7.13-5.41,10.74-8.07,.47-.34,1.14-.44,1.73-.57,.48-.1,.99-.06,1.49-.08,5.59-.29,11.18-.59,16.92-.89,1.42,3.9,2.75,7.63,4.14,11.34,.65,1.75,1.43,3.45,2.13,5.19,.95,2.36,2.7,3.37,5.23,3.31-.2-3.83-.56-7.54-.53-11.24,.03-3.98,.44-7.96,.66-11.95,.16-2.98,.76-5.72,3.75-6.99-.28-1.43-.83-2.63-.68-3.73,.93-6.65,2.01-13.27,3.1-20.29Z"/>
  <path d="M349.12,294.08c2.72-1.2,4.99-2.17,7.23-3.18,3.29-1.49,6.67-2.83,9.83-4.56,3.54-1.94,6.51-4.68,8.56-8.21,1.24-2.14,2.88-3.14,5.36-3.42,3.96-.45,7.92-1.07,11.79-2.03,6.3-1.56,11.8-4.76,16.44-9.29,1.93-1.88,3.98-2.63,6.68-2.57,8.74,.19,17.48,.16,26.22,.23,.86,0,1.73,.1,3.11,.19,2.41,11.5,4.83,23.03,7.29,34.77-1.18,.1-2.03,.25-2.88,.25-30.09,0-60.19,0-90.28-.02-2.99,0-6.01,.04-9.34-2.16Z"/>
  <path d="M377.49,443.87c.07,1.46,.16,2.42,.16,3.38,0,30.22,0,60.43,0,90.65,0,.87,0,1.75-.03,2.62-.15,4.43-2.71,7.31-7.11,7.56-2.98,.17-6,.05-8.98-.22-3.6-.32-6.09-3.1-6.35-6.71-.05-.62-.02-1.25-.02-1.87-.03-23.47-.05-46.95-.08-70.42,0-.49,.05-.99,.06-1.14,7.45-7.95,14.69-15.68,22.35-23.86Z"/>
  <path d="M406.27,446.32c1.12,1.31,2.25,2.62,3.37,3.94,5.55,6.57,11.05,13.19,16.66,19.71,1.56,1.82,2.18,3.74,2.17,6.12-.09,19.7-.08,39.4-.11,59.09,0,1.87,0,3.74-.12,5.61-.31,4.5-2.82,7.04-7.4,7.27-2.86,.14-5.74,.07-8.59-.13-3.38-.24-6.22-3.09-6.7-6.49-.14-.98-.09-1.99-.09-2.99,.03-28.68,.07-57.35,.11-86.03,0-1.95,0-3.9,0-5.85,.24-.08,.48-.17,.72-.25Z"/>
  <path d="M578.58,447.28c.14,2.34,.33,4.06,.33,5.78,.03,28.18,.04,56.37,.04,84.55,0,1.49-.08,3-.28,4.47-.46,3.34-2.45,5.51-5.84,5.76-3.47,.25-6.99,.22-10.45-.08-3.39-.29-5.32-2.44-5.78-5.84-.2-1.48-.25-2.98-.26-4.48-.04-20.58-.02-41.15-.13-61.73-.01-2.67,.68-4.69,2.52-6.69,6.25-6.79,12.3-13.76,18.43-20.65,.23-.26,.56-.44,1.41-1.1Z"/>
  <path d="M346.77,169.5c5.02-24.48,10.64-48.05,16.02-71.61,6.68-1,12.25,.15,17.92,3.09-.79,3.81-1.52,7.57-2.34,11.32-3.47,15.81-7.14,31.59-10.35,47.45-.92,4.57-3.16,6.57-7.5,7.2-4.39,.64-8.74,1.61-13.75,2.55Z"/>
  <path d="M211.66,311.06c2.44-5.03,6.58-8.19,9.12-12.43h56.03c-.73,1.09-1.03,1.89-1.61,2.34-1.17,.91-2.47,1.67-3.76,2.42-3.16,1.84-6.22,3.75-7.42,7.67h-52.36Z"/>
  <path d="M432.53,329.04h-45.62c-.74-2.9-.46-10.5,.57-14.75h43.55c.48,4.71,.97,9.49,1.5,14.75Z"/>
  <path d="M377.6,433.1c-3.68,3.26-6.81,5.87-9.75,8.68-4.04,3.86-7.92,7.88-12.25,12.2-.21-1.17-.45-1.92-.45-2.68-.03-8.97-.08-17.93-.02-26.9,.04-6.4,2.8-9.05,9.2-9.03,2.12,0,4.25-.05,6.34,.17,4.45,.47,6.7,2.82,6.9,7.32,.16,3.6,.03,7.22,.03,10.23Z"/>
  <path d="M346.34,225.3c-3.39,12.03-6.79,24.07-10.25,36.34-5.81,.36-11.28-.51-17.38-1.16,2.75-10.3,5.38-20.17,8.03-30.1,6.75-1.12,13.6-.77,18.91-5.62,.23,.18,.46,.36,.68,.54Z"/>
  <path d="M429.34,299.04c.33,3.75,.67,7.67,1.01,11.51-3.66,1.29-36.55,1.79-43.13,.65,.2-3.85,.4-7.76,.62-12.16h41.5Z"/>
  <path d="M378.65,264.41c.11-5.15-2.69-8.49-6.8-11.19,3.36-6.12,6.78-11.85,11.68-16.51,.85-.81,2.51-1.32,3.67-1.15,6.66,.99,11.82,4.26,14.93,10.73-5.07,9.22-12.27,15.7-23.48,18.12Z"/>
  <path d="M458.86,329.07h-12.54c-1.32-6-1.43-12.03-3.5-17.79h-10c-.37-4.06-.72-7.95-1.1-12.25,6.81-.86,13.38-.06,20.41-.64,2.22,10.11,4.42,20.14,6.73,30.68Z"/>
  <path d="M347.18,279.56c-.42,1.21-.69,2.01-.98,2.85-.59,.13-1.06,.27-1.54,.33-4.44,.56-7.1-2.38-5.93-6.71,.72-2.67,2.41-4.83,5.25-5.16,1.34-.15,1.89-.84,2.7-1.51,3.53-2.93,7.01-5.94,10.66-8.72,1.54-1.18,3.46-1.87,5.04-2.69,1.63,1.07,2.98,1.93,4.3,2.82,4.43,3,5.32,7.19,2.27,11.53-4.18,5.95-10.3,8.78-17.17,10.25-2.14,.46-3.55-.66-4.59-2.98Z"/>
  <path d="M307.31,215.66c4.18-4.72,8.01-9.22,13.39-11.79,2.51-1.2,5.43-1.73,8.23-2.07,1.28-.15,3.08,.54,3.97,1.49,2.2,2.34,4.09,4.98,5.94,7.62,1.24,1.77,.75,3.41-.72,5.02-4.15,4.54-9.53,6.13-15.37,6.65-1.48,.13-2.99,0-4.48-.03-4.86-.08-7.93-2.96-10.95-6.9Z"/>
  <path d="M383.61,328.79h-33.77c3.41-2.44,6.41-4.15,8.86-6.45,2.4-2.26,4.22-5.13,6.54-8.04h19.22c-.1,4.93,.08,9.7-.84,14.49Z"/>
  <path d="M307.88,235c-.36,2.5-.88,7.19-1.73,11.82-.69,3.74-4.45,5.81-7.95,4.42-.98-.39-1.89-1.59-2.3-2.63-1.52-3.89-1.88-7.98-1.2-12.1,.53-3.18,1.22-6.34,1.98-9.48,.83-3.44,3.21-4.53,6.5-3.11,4.12,1.78,4.94,3.31,4.69,11.07Z"/>
  <path d="M355.5,299.04h30.22c-.33,4.37-.63,8.19-.95,12.45-3.31,.5-6.64,.2-9.93,.26-3.34,.05-6.68,.01-10.22,.01-1.1-5.53-4.27-9.49-9.13-12.72Z"/>
  <path d="M336.24,175.76c1.23,4.01,.62,7.8-.63,11.48-.72,2.13-2.46,3.5-4.6,4.07-3.6,.96-7.22,1.91-10.89,2.53-2.96,.51-5.17-1.75-4.61-4.72,1.1-5.89,3.25-10.98,10.05-12.49,3.42-.75,6.73-1.84,10.68-.87Z"/>
  <path d="M381.33,98.02c-5.91-1.16-11.46-2.24-17.47-3.42,.98-4.71,2.01-9.64,3.11-14.94,6.04,.73,11.78,1.42,18.04,2.17-1.31,5.74-2.52,11.1-3.68,16.18Z"/>
  <path d="M294.36,211.48c-2.1-.71-2.52-1.82-2.01-3.16,2.64-6.94,6.47-13.1,12.1-18.03,.26-.22,.67-.27,1.5-.59,1.47,2.75,2.94,5.52,4.51,8.46-5.56,4.55-10.27,9.67-16.09,13.32Z"/>
  <path d="M443.69,329.1h-8.74c-.43-4.89-.84-9.63-1.3-14.79h7.61c1.32,4.62,1.83,9.48,2.42,14.79Z"/>
  <path d="M290.71,240.07c-1.41-2.4-4.39-4.27-3.61-7.72,.56-2.49,1.15-5.03,2.95-6.76,2.21,.17,2.59,1.54,2.92,2.88,.97,3.82,.96,7.74,.03,11.48-.6,2.39-.67,4.61-.35,6.97,.46,3.41,.82,6.84,1.22,10.23-2.31,.5-2.69-.93-2.89-2.07-.7-3.8-1.33-7.62-1.71-11.45-.1-.99,.81-2.08,1.44-3.55Z"/>
  <path d="M354.78,239.17c2.08-.52,4.18-1.05,6.69-1.69-.85,7.04-3.39,12.79-8.22,18.3-1.08-6.07,.22-11.19,1.53-16.61Z"/>
  <path d="M389.7,233.61c3.86-2.26,10.1-1.4,13.39,1.61,2.29,2.09,2.78,5.4,1.18,9.2-1.17-1.87-2-3.79-3.36-5.19-1.43-1.48-3.26-2.69-5.11-3.61-1.82-.91-3.9-1.31-6.09-2.01Z"/>
  <path d="M373.61,266.96c-1.58-5.02-4.25-8.31-8.93-9.84,3.31-2.03,6.11-1.59,8.57,1,2.24,2.35,2.61,5.46,.36,8.85Z"/>
  <path d="M339.79,199.49c2.71,3.96,5.42,7.93,8.51,12.44-1.44-.2-2.36-.07-2.98-.45-3.52-2.19-5.67-5.51-7.05-9.32-.43-1.18,.13-2.17,1.53-2.66Z"/>
  <path d="M340.11,191.65c.26-5.08,.47-9.35,.69-13.65,3.31,1.05,3.94,1.7,3.52,4.55-.46,3.1-.75,6.36-4.21,9.1Z"/>
  <path d="M308.77,223.46c-1.31-.56-2.64-1.09-3.93-1.7-3.71-1.78-4.42-1.75-7.82,.51,.17-2.82,1.38-4.37,3.83-4.91,3.2-.7,6.02,1.15,7.92,6.09Z"/>
  <path d="M295.58,259.03c.22-1.36,.37-2.26,.5-3.07,5.8-1.28,8.3-.45,8.9,3.07h-9.4Z"/>
  <path d="M312.42,195.87c-1.75-2.19-2.91-4.67-3.41-7.85,1.14-.95,2.32-1.93,3.91-3.25,.1,1.04,.28,1.52,.15,1.89-.85,2.35-.66,4.62,.38,6.86,.45,.98,.65,1.93-1.03,2.35Z"/>
  <path d="M287.83,219.08c-.42-3.72,.76-5.17,4.26-5.44-.64,2.46-2.43,3.76-4.26,5.44Z"/>
  <path d="M523.55,100.09c-2.43-.47-5.02-.58-7.26-1.52-2.1-.87-4.03-2.42-5.67-4.03-1.4-1.37-1.59-3.25-.49-5.17,5.69-9.88,9.32-20.65,13.48-31.2,1.19-3.01,2.44-6,3.73-8.97,1.91-4.42,4.63-8.34,8.46-11.25,5.85-4.45,11.71-8.92,17.9-12.87,7.37-4.71,15.41-6.3,23.92-3.07,4.28,1.62,7.95,4.18,10.93,7.64,5.18,6.01,5.79,14.77,1.69,22.04-2.32,4.1-5.6,7.3-9.32,10.09-11.68,8.75-23.36,17.48-35.04,26.23-3.49,2.62-6.9,5.36-10.44,7.9-3.51,2.51-7.32,4.3-11.88,4.18Z"/>
  <path d="M431.09,150.34c.25-12.42,9.39-18.55,18.76-18.78,9.92-.24,18.96,9.24,19.04,19.31,.08,11.75-10.92,18.93-18.9,18.94-9.25,.01-19.29-9.17-18.9-19.47Z"/>
  <path d="M399.28,174.86c.37,.5,.81,.86,.94,1.3,1.55,5.31,5.99,8.03,9.89,11.3,1.96,1.64,3.93,3.6,5.07,5.83,3,5.88-.43,11.73-6.99,11.96-11.37,.4-21.5-8.16-19.29-20.98,1.07-6.19,4.57-9.47,10.39-9.41Z"/>
</svg>